<?xml version="1.0" encoding="UTF-8" standalone="no"?>
<svg width="38px" height="41px" viewBox="0 0 38 41" version="1.1" xmlns="http://www.w3.org/2000/svg" xmlns:xlink="http://www.w3.org/1999/xlink" xmlns:sketch="http://www.bohemiancoding.com/sketch/ns">
    <!-- Generator: Sketch 3.3.3 (12081) - http://www.bohemiancoding.com/sketch -->
    <title>tmg-mark-light</title>
    <desc>Created with Sketch.</desc>
    <defs></defs>
    <g id="Page-1" stroke="none" stroke-width="1" fill="none" fill-rule="evenodd" sketch:type="MSPage">
        <g id="TheMidGame-StyleGuide-1b" sketch:type="MSArtboardGroup" transform="translate(-68.000000, -249.000000)">
            <g id="//-Headers" sketch:type="MSLayerGroup" transform="translate(47.000000, 150.000000)">
                <g id="Header-light" transform="translate(0.000000, 85.000000)" sketch:type="MSShapeGroup">
                    <g id="Logo-mark">
                        <g id="tmg-mark-light" transform="translate(21.000000, 14.000000)">
                            <path d="M13.726,20.542312 C13.726,17.69068 16.075,15.379264 18.973,15.379264 C21.8706667,15.379264 24.22,17.69068 24.22,20.542312 C24.22,23.393616 21.8706667,25.70536 18.973,25.70536 C16.075,25.70536 13.726,23.393616 13.726,20.542312" id="Fill-32" fill="#5AA530"></path>
                            <path d="M16.525,9.566776 C16.525,8.236736 17.621,7.157944 18.973,7.157944 C20.325,7.157944 21.421,8.236736 21.421,9.566776 C21.421,10.897472 20.325,11.975936 18.973,11.975936 C17.621,11.975936 16.525,10.897472 16.525,9.566776 Z M17.3346667,1.706256 C17.3346667,0.815736 18.068,0.094136 18.973,0.094136 C19.8776667,0.094136 20.6113333,0.815736 20.6113333,1.706256 C20.6113333,2.596448 19.8776667,3.318048 18.973,3.318048 C18.068,3.318048 17.3346667,2.596448 17.3346667,1.706256 Z M8.38666667,7.888728 C7.705,6.727608 8.10966667,5.242752 9.28966667,4.57232 C10.47,3.90156 11.979,4.299424 12.6603333,5.460872 C13.342,6.62232 12.9376667,8.107176 11.7573333,8.777608 C10.5773333,9.44804 9.068,9.050176 8.38666667,7.888728 Z M8.084,17.066824 C6.913,16.40164 6.512,14.928592 7.188,13.776328 C7.864,12.624392 9.361,12.22948 10.532,12.894664 C11.7026667,13.559848 12.104,15.033224 11.428,16.18516 C10.752,17.337424 9.255,17.732008 8.084,17.066824 Z M10.4416667,28.017104 C9.271,28.682288 7.77366667,28.287704 7.09766667,27.13544 C6.42166667,25.983504 6.82266667,24.510128 7.99366667,23.844944 C9.16466667,23.17976 10.6616667,23.574344 11.3376667,24.726608 C12.0136667,25.878872 11.6123333,27.35192 10.4416667,28.017104 Z M21.2336667,31.492264 C21.2336667,32.822632 20.1376667,33.901096 18.7856667,33.901096 C17.4336667,33.901096 16.3376667,32.822632 16.3376667,31.492264 C16.3376667,30.161896 17.4336667,29.083432 18.7856667,29.083432 C20.1376667,29.083432 21.2336667,30.161896 21.2336667,31.492264 Z M29.7006667,24.040432 C30.8716667,24.705616 31.2726667,26.178664 30.5966667,27.330928 C29.9206667,28.483192 28.4236667,28.878104 27.2526667,28.21292 C26.0816667,27.547736 25.6806667,26.07436 26.3566667,24.922096 C27.0326667,23.769832 28.53,23.375248 29.7006667,24.040432 Z M27.3536667,13.101304 C28.5246667,12.43612 30.0216667,12.831032 30.6976667,13.983296 C31.3736667,15.13556 30.9726667,16.608608 29.8016667,17.273792 C28.6306667,17.938976 27.1336667,17.544392 26.4576667,16.392128 C25.7816667,15.239864 26.1826667,13.766488 27.3536667,13.101304 Z M1.57033333,12.446616 C0.787,12.00152 0.518333333,11.015224 0.970666667,10.244424 C1.423,9.473296 2.425,9.208928 3.20866667,9.654352 C3.99266667,10.099448 4.26066667,11.085416 3.80866667,11.856544 C3.356,12.627672 2.354,12.891712 1.57033333,12.446616 Z M3.11833333,31.257744 C2.335,31.70284 1.333,31.4388 0.880333333,30.667672 C0.428,29.896544 0.696666667,28.910576 1.48,28.46548 C2.26366667,28.020384 3.26566667,28.284424 3.718,29.055552 C4.17033333,29.82668 3.902,30.812648 3.11833333,31.257744 Z M20.424,39.353112 C20.424,40.243632 19.6906667,40.96556 18.7856667,40.96556 C17.881,40.96556 17.1473333,40.243632 17.1473333,39.35344 C17.1473333,38.46292 17.881,37.74132 18.7856667,37.740992 C19.6906667,37.740992 20.424,38.46292 20.424,39.353112 Z M36.2143333,28.660968 C36.998,29.106064 37.2666667,30.092032 36.814,30.86316 C36.3616667,31.634288 35.3596667,31.898656 34.576,31.453232 C33.7923333,31.008136 33.524,30.022168 33.9763333,29.25104 C34.4286667,28.479912 35.4306667,28.215872 36.2143333,28.660968 Z M34.677,9.860992 C35.4603333,9.415896 36.4626667,9.679936 36.915,10.451064 C37.3676667,11.222192 37.099,12.20816 36.3153333,12.653584 C35.5316667,13.09868 34.5296667,12.834312 34.0773333,12.063184 C33.6246667,11.292056 33.8933333,10.306088 34.677,9.860992 Z M2.49666667,23.176808 C1.13366667,23.176808 0.029,22.089816 0.029,20.748952 C0.029,19.408088 1.134,18.320768 2.49666667,18.320768 C3.85966667,18.320768 4.96433333,19.40776 4.96433333,20.748624 C4.964,22.089488 3.85966667,23.17648 2.49666667,23.176808 Z M12.998,35.863192 C12.3166667,37.02464 10.8076667,37.422832 9.62733333,36.7524 C8.44733333,36.08164 8.043,34.596784 8.72433333,33.435336 C9.40533333,32.273888 10.9146667,31.876024 12.095,32.546456 C13.275,33.216888 13.6793333,34.702072 12.998,35.863192 Z M29.41,33.248376 C30.0916667,34.409824 29.6873333,35.89468 28.507,36.565112 C27.3266667,37.235544 25.8176667,36.83768 25.136,35.67656 C24.4546667,34.515112 24.859,33.030256 26.0393333,32.359496 C27.2193333,31.689064 28.7286667,32.086928 29.41,33.248376 Z M35.3293333,17.960952 C36.6923333,17.960952 37.797,19.047944 37.797,20.388808 C37.797,21.73 36.6923333,22.816992 35.3293333,22.816992 C33.9666667,22.816992 32.8616667,21.73 32.8616667,20.389136 C32.8616667,19.048272 33.9666667,17.960952 35.3293333,17.960952 Z M24.842,5.245376 C25.5233333,4.084256 27.0326667,3.686064 28.2126667,4.356496 C29.3926667,5.027256 29.7973333,6.512112 29.1156667,7.67356 C28.4346667,8.835008 26.9253333,9.232872 25.745,8.56244 C24.565,7.892008 24.1606667,6.406824 24.842,5.245376 Z" id="Fill-33" fill="#252525"></path>
                        </g>
                    </g>
                </g>
            </g>
        </g>
    </g>
</svg>